<mxfile host="app.diagrams.net" modified="2023-08-07T05:08:52.844Z" agent="Mozilla/5.0 (Macintosh; Intel Mac OS X 10_15_7) AppleWebKit/537.36 (KHTML, like Gecko) Chrome/115.0.0.0 Safari/537.36" etag="DSgVm8bjg9B_VMzGSG-E" version="21.6.6" type="github">
  <diagram name="Page-1" id="ng1gLMauQu2KCJSVmks3">
    <mxGraphModel dx="1244" dy="723" grid="1" gridSize="10" guides="1" tooltips="1" connect="1" arrows="1" fold="1" page="1" pageScale="1" pageWidth="850" pageHeight="1100" math="0" shadow="0">
      <root>
        <mxCell id="0" />
        <mxCell id="1" parent="0" />
        <mxCell id="KwKKE5bNN2w_u_pZAeZ2-19" style="edgeStyle=orthogonalEdgeStyle;rounded=0;orthogonalLoop=1;jettySize=auto;html=1;" edge="1" parent="1" source="KwKKE5bNN2w_u_pZAeZ2-9" target="KwKKE5bNN2w_u_pZAeZ2-2">
          <mxGeometry relative="1" as="geometry" />
        </mxCell>
        <mxCell id="KwKKE5bNN2w_u_pZAeZ2-25" style="edgeStyle=orthogonalEdgeStyle;rounded=0;orthogonalLoop=1;jettySize=auto;html=1;" edge="1" parent="1" source="KwKKE5bNN2w_u_pZAeZ2-1" target="KwKKE5bNN2w_u_pZAeZ2-4">
          <mxGeometry relative="1" as="geometry" />
        </mxCell>
        <mxCell id="KwKKE5bNN2w_u_pZAeZ2-26" style="edgeStyle=orthogonalEdgeStyle;rounded=0;orthogonalLoop=1;jettySize=auto;html=1;" edge="1" parent="1" source="KwKKE5bNN2w_u_pZAeZ2-1" target="KwKKE5bNN2w_u_pZAeZ2-6">
          <mxGeometry relative="1" as="geometry" />
        </mxCell>
        <mxCell id="KwKKE5bNN2w_u_pZAeZ2-1" value="" style="outlineConnect=0;dashed=0;verticalLabelPosition=bottom;verticalAlign=top;align=center;html=1;shape=mxgraph.aws3.lambda_function;fillColor=#F58534;gradientColor=none;" vertex="1" parent="1">
          <mxGeometry x="590" y="460.5" width="69" height="72" as="geometry" />
        </mxCell>
        <mxCell id="KwKKE5bNN2w_u_pZAeZ2-21" value="" style="edgeStyle=orthogonalEdgeStyle;rounded=0;orthogonalLoop=1;jettySize=auto;html=1;" edge="1" parent="1" source="KwKKE5bNN2w_u_pZAeZ2-2" target="KwKKE5bNN2w_u_pZAeZ2-9">
          <mxGeometry relative="1" as="geometry" />
        </mxCell>
        <mxCell id="KwKKE5bNN2w_u_pZAeZ2-22" style="edgeStyle=orthogonalEdgeStyle;rounded=0;orthogonalLoop=1;jettySize=auto;html=1;" edge="1" parent="1" source="KwKKE5bNN2w_u_pZAeZ2-2" target="KwKKE5bNN2w_u_pZAeZ2-4">
          <mxGeometry relative="1" as="geometry" />
        </mxCell>
        <mxCell id="KwKKE5bNN2w_u_pZAeZ2-2" value="" style="outlineConnect=0;dashed=0;verticalLabelPosition=bottom;verticalAlign=top;align=center;html=1;shape=mxgraph.aws3.api_gateway;fillColor=#D9A741;gradientColor=none;" vertex="1" parent="1">
          <mxGeometry x="387" y="292.13" width="76.5" height="93" as="geometry" />
        </mxCell>
        <mxCell id="KwKKE5bNN2w_u_pZAeZ2-23" style="edgeStyle=orthogonalEdgeStyle;rounded=0;orthogonalLoop=1;jettySize=auto;html=1;" edge="1" parent="1" source="KwKKE5bNN2w_u_pZAeZ2-4" target="KwKKE5bNN2w_u_pZAeZ2-2">
          <mxGeometry relative="1" as="geometry" />
        </mxCell>
        <mxCell id="KwKKE5bNN2w_u_pZAeZ2-24" style="edgeStyle=orthogonalEdgeStyle;rounded=0;orthogonalLoop=1;jettySize=auto;html=1;" edge="1" parent="1" source="KwKKE5bNN2w_u_pZAeZ2-4" target="KwKKE5bNN2w_u_pZAeZ2-1">
          <mxGeometry relative="1" as="geometry" />
        </mxCell>
        <mxCell id="KwKKE5bNN2w_u_pZAeZ2-4" value="" style="outlineConnect=0;dashed=0;verticalLabelPosition=bottom;verticalAlign=top;align=center;html=1;shape=mxgraph.aws3.iam;fillColor=#759C3E;gradientColor=none;" vertex="1" parent="1">
          <mxGeometry x="603.5" y="298.13" width="42" height="81" as="geometry" />
        </mxCell>
        <mxCell id="KwKKE5bNN2w_u_pZAeZ2-27" style="edgeStyle=orthogonalEdgeStyle;rounded=0;orthogonalLoop=1;jettySize=auto;html=1;" edge="1" parent="1" source="KwKKE5bNN2w_u_pZAeZ2-6">
          <mxGeometry relative="1" as="geometry">
            <mxPoint x="624.5" y="530" as="targetPoint" />
          </mxGeometry>
        </mxCell>
        <mxCell id="KwKKE5bNN2w_u_pZAeZ2-28" style="edgeStyle=orthogonalEdgeStyle;rounded=0;orthogonalLoop=1;jettySize=auto;html=1;" edge="1" parent="1" source="KwKKE5bNN2w_u_pZAeZ2-6" target="KwKKE5bNN2w_u_pZAeZ2-8">
          <mxGeometry relative="1" as="geometry" />
        </mxCell>
        <mxCell id="KwKKE5bNN2w_u_pZAeZ2-6" value="" style="outlineConnect=0;dashed=0;verticalLabelPosition=bottom;verticalAlign=top;align=center;html=1;shape=mxgraph.aws3.iam;fillColor=#759C3E;gradientColor=none;" vertex="1" parent="1">
          <mxGeometry x="603.5" y="590" width="42" height="81" as="geometry" />
        </mxCell>
        <mxCell id="KwKKE5bNN2w_u_pZAeZ2-29" style="edgeStyle=orthogonalEdgeStyle;rounded=0;orthogonalLoop=1;jettySize=auto;html=1;" edge="1" parent="1" source="KwKKE5bNN2w_u_pZAeZ2-8" target="KwKKE5bNN2w_u_pZAeZ2-6">
          <mxGeometry relative="1" as="geometry" />
        </mxCell>
        <mxCell id="KwKKE5bNN2w_u_pZAeZ2-8" value="Amazon DynamoDB" style="sketch=0;outlineConnect=0;fontColor=#232F3E;gradientColor=none;strokeColor=#ffffff;fillColor=#232F3E;dashed=0;verticalLabelPosition=middle;verticalAlign=bottom;align=center;html=1;whiteSpace=wrap;fontSize=10;fontStyle=1;spacing=3;shape=mxgraph.aws4.productIcon;prIcon=mxgraph.aws4.dynamodb;" vertex="1" parent="1">
          <mxGeometry x="730" y="575.5" width="80" height="110" as="geometry" />
        </mxCell>
        <mxCell id="KwKKE5bNN2w_u_pZAeZ2-16" value="" style="edgeStyle=orthogonalEdgeStyle;rounded=0;orthogonalLoop=1;jettySize=auto;html=1;" edge="1" parent="1" source="KwKKE5bNN2w_u_pZAeZ2-9" target="KwKKE5bNN2w_u_pZAeZ2-10">
          <mxGeometry relative="1" as="geometry" />
        </mxCell>
        <mxCell id="KwKKE5bNN2w_u_pZAeZ2-9" value="" style="image;aspect=fixed;perimeter=ellipsePerimeter;html=1;align=center;shadow=0;dashed=0;spacingTop=3;image=img/lib/active_directory/internet_cloud.svg;" vertex="1" parent="1">
          <mxGeometry x="210" y="305" width="106.75" height="67.25" as="geometry" />
        </mxCell>
        <mxCell id="KwKKE5bNN2w_u_pZAeZ2-15" style="edgeStyle=orthogonalEdgeStyle;rounded=0;orthogonalLoop=1;jettySize=auto;html=1;entryX=0;entryY=0.5;entryDx=0;entryDy=0;" edge="1" parent="1" source="KwKKE5bNN2w_u_pZAeZ2-10" target="KwKKE5bNN2w_u_pZAeZ2-9">
          <mxGeometry relative="1" as="geometry" />
        </mxCell>
        <mxCell id="KwKKE5bNN2w_u_pZAeZ2-10" value="" style="sketch=0;outlineConnect=0;fontColor=#232F3E;gradientColor=none;fillColor=#232F3D;strokeColor=none;dashed=0;verticalLabelPosition=bottom;verticalAlign=top;align=center;html=1;fontSize=12;fontStyle=0;aspect=fixed;pointerEvents=1;shape=mxgraph.aws4.client;" vertex="1" parent="1">
          <mxGeometry x="50" y="300.63" width="78" height="76" as="geometry" />
        </mxCell>
        <mxCell id="KwKKE5bNN2w_u_pZAeZ2-30" value="Client" style="text;html=1;align=center;verticalAlign=middle;resizable=0;points=[];autosize=1;strokeColor=none;fillColor=none;" vertex="1" parent="1">
          <mxGeometry x="55" y="388" width="50" height="30" as="geometry" />
        </mxCell>
        <mxCell id="KwKKE5bNN2w_u_pZAeZ2-31" value="Internet" style="text;html=1;align=center;verticalAlign=middle;resizable=0;points=[];autosize=1;strokeColor=none;fillColor=none;" vertex="1" parent="1">
          <mxGeometry x="230" y="388" width="60" height="30" as="geometry" />
        </mxCell>
        <mxCell id="KwKKE5bNN2w_u_pZAeZ2-32" value="API Gateway" style="text;html=1;align=center;verticalAlign=middle;resizable=0;points=[];autosize=1;strokeColor=none;fillColor=none;" vertex="1" parent="1">
          <mxGeometry x="380.25" y="388" width="90" height="30" as="geometry" />
        </mxCell>
        <mxCell id="KwKKE5bNN2w_u_pZAeZ2-33" value="IAM" style="text;html=1;align=center;verticalAlign=middle;resizable=0;points=[];autosize=1;strokeColor=none;fillColor=none;rotation=90;" vertex="1" parent="1">
          <mxGeometry x="650" y="318" width="40" height="30" as="geometry" />
        </mxCell>
        <mxCell id="KwKKE5bNN2w_u_pZAeZ2-34" value="Lambda Function" style="text;html=1;align=center;verticalAlign=middle;resizable=0;points=[];autosize=1;strokeColor=none;fillColor=none;rotation=90;" vertex="1" parent="1">
          <mxGeometry x="620" y="478" width="120" height="30" as="geometry" />
        </mxCell>
        <mxCell id="KwKKE5bNN2w_u_pZAeZ2-35" value="IAM" style="text;html=1;align=center;verticalAlign=middle;resizable=0;points=[];autosize=1;strokeColor=none;fillColor=none;rotation=-90;" vertex="1" parent="1">
          <mxGeometry x="550" y="615.5" width="40" height="30" as="geometry" />
        </mxCell>
      </root>
    </mxGraphModel>
  </diagram>
</mxfile>
